<svg id="圖層_1" data-name="圖層 1" xmlns="http://www.w3.org/2000/svg" viewBox="0 0 682 556"><g id="solid_long-arrow-alt-right" data-name="solid long-arrow-alt-right"><path d="M512.62,87.27H135.26a15,15,0,0,0-15,15v70a15,15,0,0,0,15,15H512.62v57.56a30,30,0,0,0,51.2,21.2L671.38,158.47a30,30,0,0,0,0-42.43h0L563.82,8.47a30,30,0,0,0-51.2,21.2Z"/></g><g id="solid_long-arrow-alt-right-2" data-name="solid long-arrow-alt-right-2"><path d="M392.62,367.27H15.26a15,15,0,0,0-15,15v70a15,15,0,0,0,15,15H392.62v57.56a30,30,0,0,0,51.2,21.2L551.38,438.47a30,30,0,0,0,0-42.43h0L443.82,288.47a30,30,0,0,0-51.2,21.2Z"/></g></svg>