<svg id="圖層_2" data-name="圖層 2" xmlns="http://www.w3.org/2000/svg" viewBox="0 0 409.5 409.5"><defs><style>.cls-1{fill:#ff6d2d;}</style></defs><g id="Path_76" data-name="Path 76"><path class="cls-1" d="M30.49,234.83h351a29.25,29.25,0,0,0,0-58.5h-351a29.25,29.25,0,0,0,0,58.5Z" transform="translate(-1.24 -0.83)"/></g><g id="Path_77" data-name="Path 77"><path class="cls-1" d="M176.76,410.33a29.13,29.13,0,0,0,19-7.05L400.53,227.79a29.26,29.26,0,0,0,0-44.42L195.78,7.87a29.25,29.25,0,0,0-38.07,44.41l178.84,153.3L157.71,358.87a29.25,29.25,0,0,0,19,51.46Z" transform="translate(-1.24 -0.83)"/></g></svg>