<?xml version="1.0" encoding="utf-8"?>
<!-- Generator: Adobe Illustrator 24.3.0, SVG Export Plug-In . SVG Version: 6.00 Build 0)  -->
<svg version="1.1" id="圖層_1" xmlns="http://www.w3.org/2000/svg" xmlns:xlink="http://www.w3.org/1999/xlink" x="0px" y="0px"
	 viewBox="0 0 635 697" style="enable-background:new 0 0 635 697;" xml:space="preserve">
<style type="text/css">
	.st0{fill:#FFFFFF;}
	.st1{font-family:'NotoSansCJKtc-Regular-B5pc-H';}
	.st2{font-size:300px;}
</style>
<path id="arr" class="st0" d="M184.7,672.3c13.1,5.5,26.8,9.5,40.4,13.6c14.2,3.3,28.5,6.1,42.9,8.2l16.7,1.6l30.4,0.9
	c27.7-0.8,55.3-4.9,82-12.1c23-6.3,45.3-15.1,66.4-26.2c1-0.5,2.1-0.9,3.1-1.4l24.6-14.7l14.1-10.1c11.7-8.9,22.7-18.6,33.5-28.5
	c9.9-10.1,19.3-20.5,28.3-31.3c8-10.9,15.9-22,22.8-33.6s13-24.2,18.9-36.6c5.1-13,9.6-26.2,13.7-39.5c3.2-13.5,6-27.1,8.3-40.8
	l1.8-16.3l0.7-30.6c-0.6-21.5-3.4-42.9-8.2-63.9c-3.2-14-7.4-27.8-12.5-41.2c-5.7-14.3-12.2-28.3-19.5-41.8l-15.5-24.5l-10.2-14
	c-9.2-11.4-19-22.2-29.3-32.6c-27.4-26.2-59.1-47.5-93.7-63l-10.7-4.8c-13.4-4.8-26.8-9.7-40.6-13.4c-14.2-3.3-28.4-6.2-42.9-8.3
	l-18.4-1.8l-28.8-0.6c-16.8,0.6-33.5,2.2-50,4.9c-34.7,6-68.2,17.4-99.3,33.7c-0.7,0.3-1.4,0.6-2.1,0.9s-1.2,1.2-2.1,1l0.8-1.8
	l21-35.4c7-11.8-1.2,2.2,5.7-9.7l9.2-15.4l6.7-11.6c5.2-6.6,4.2-16.1-2.4-21.4c-4.6-2.7-9.2-5.3-13.9-7.8
	c-7.4-4.3-16.9-1.7-21.2,5.7c0,0,0,0,0,0c0,0.1-0.1,0.1-0.1,0.2c-2.5,4.3-5.3,8.7-7.9,13.1l-9.2,15.5c-7,11.8,1.2-2.2-5.7,9.7
	s-14,23.6-21.1,35.5s-13.9,23.5-21,35.4c-3.8,6.5-7.3,13.1-11.3,19.2c-4.3,5.7-4.6,13.4-0.7,19.4c2,2,4.4,3.7,6.9,5l11.7,6.7
	c12.3,6.6,24.5,13.4,36.5,20.5l35.8,20.1c12.3,6.6-8.6-5.1,3.3,1.9l17.9,10c2.7,1.6,5.5,3,8.3,4.4c6.2,3.9,12.7,7.2,19.4,10.1
	c4.6,0.9,8.6-1.4,12.8-2.5c5-6.5,9.2-13.7,12.4-21.2c0.2-3.3-0.4-6.5-1.7-9.5c-2.3-3.3-5.4-6-9-7.8c-6.6-3.6-13.2-7.5-19.8-11.2
	l-17.9-10l-3.3-1.9l-34.1-19c12.9-8.2,26.6-15.2,40.9-20.8c6.9-3.2,14.1-5.8,21.5-7.9c10.8-4,21.9-6.9,33.2-8.8
	c7.5-1.9,15.1-3.1,22.8-3.7c16.4-2.3,33-2.9,49.5-1.6c1.7-0.3,3.4-0.2,5.1,0.3c13.5,0.6,26.9,2.5,40,5.8
	c13.8,2.7,27.4,6.7,40.4,12.1c13.2,4.7,25.9,10.7,38,17.8c12.4,6.5,24.1,14.2,34.9,23c11.5,8.4,22.1,18.1,31.5,28.8
	c9.3,9,17.6,19.1,24.5,30.1c1.3,1.1,2.3,2.5,2.9,4.1c9.8,13.4,17.8,28.1,24,43.5c3,6,5.5,12.3,7.4,18.7c4.2,11.3,7.4,22.9,9.5,34.7
	c1.7,6.5,2.8,13.1,3.3,19.8c2.3,16.1,2.8,32.3,1.7,48.5c0.2,1.3,0.1,2.7-0.3,3.9c-0.7,13.4-2.7,26.8-6.1,39.8
	c-2.9,13.8-7,27.3-12.4,40.2c-4.9,12.9-11.1,25.3-18.4,36.9c-6.7,11.8-14.5,23-23.2,33.3c-8.8,11.2-18.8,21.4-29.6,30.7
	c-9.9,9.4-20.7,17.7-32.2,25c-1.3,1.2-2.8,2.1-4.5,2.8c-12.6,8.2-26,15.3-39.9,21.2c-1.2,0.6-2.6,1-3.8,1.5
	c-6.6,3-13.4,5.5-20.3,7.4c-10.5,3.7-21.4,6.5-32.4,8.5c-7.6,1.8-15.4,3-23.2,3.6c-16.4,2.4-33,2.9-49.5,1.5l-4.3-0.3
	c-13.7-0.6-27.4-2.5-40.7-5.8c-13.9-2.7-27.4-6.8-40.5-12.2c-13.2-4.7-26-10.6-38.1-17.8c-12.4-6.6-24-14.3-34.9-23.1
	c-11.5-8.5-22.1-18.1-31.7-28.7C93.3,555.3,85,545,77.8,534l-2.4-3.3c-9.3-13.3-17.2-27.5-23.5-42.4c-3.4-6.9-6.2-14.2-8.4-21.6
	c-2.4-8.8-11.4-14-20.2-11.7h0c-3.9,1.1-7.8,2.1-11.7,3.3c-7.8,1.6-12.9,9.1-11.4,16.9c0.9,5.2,2.4,10.4,4.5,15.3
	c6.4,14.5,12.9,29,20.5,43l16,25.1l10.6,14.2c8.8,11.1,18.6,21.4,28.4,31.7c7,6.1,13.8,12.4,21,18.2c20.9,16.9,43.8,31.2,68.2,42.5
	c5.1,2.4,10.4,4.7,15.6,7"/>
<g id="_15">
	<text transform="matrix(1 0 0 1 148.04 508.45)" class="st0 st1 st2">15</text>
</g>
</svg>
