<svg id="圖層_1" data-name="圖層 1" xmlns="http://www.w3.org/2000/svg" viewBox="0 0 676 675"><g id="Ellipse_13" data-name="Ellipse 13"><path d="M338,22.38A315.09,315.09,0,0,1,460.61,627.64,315.09,315.09,0,0,1,215.39,47.13,313,313,0,0,1,338,22.38m0-22.5C151.6-.12.5,151,.5,337.38S151.6,674.88,338,674.88s337.5-151.1,337.5-337.5S524.4-.12,338-.12Z"/><path d="M338,33.63A303.84,303.84,0,0,1,456.23,617.27,303.84,303.84,0,0,1,219.77,57.49,301.91,301.91,0,0,1,338,33.63m0-22.5C157.82,11.13,11.75,157.2,11.75,337.38S157.82,663.63,338,663.63,664.25,517.57,664.25,337.38,518.18,11.13,338,11.13Z"/></g><g id="solid_play" data-name="solid play"><path d="M461.14,310.2,284.36,205.69A24,24,0,0,0,248,226.41v209a24.1,24.1,0,0,0,36.36,20.75L461.14,351.69a24.07,24.07,0,0,0,0-41.49Z"/></g></svg>