<?xml version="1.0" encoding="utf-8"?>
<!-- Generator: Adobe Illustrator 24.3.0, SVG Export Plug-In . SVG Version: 6.00 Build 0)  -->
<svg version="1.1" id="圖層_1" xmlns="http://www.w3.org/2000/svg" xmlns:xlink="http://www.w3.org/1999/xlink" x="0px" y="0px"
	 viewBox="0 0 635 697" style="enable-background:new 0 0 635 697;" xml:space="preserve">
<style type="text/css">
	.st0{fill:#FFFFFF;}
	.st1{font-family:'NotoSansCJKtc-Regular-B5pc-H';}
	.st2{font-size:300px;}
</style>
<path id="arr" class="st0" d="M448.5,672.2c5.2-2.3,10.4-4.6,15.5-7c24.4-11.3,47.3-25.6,68.2-42.5c7.2-5.8,14-12.2,21-18.2
	c9.8-10.3,19.6-20.6,28.4-31.7l10.6-14.2l16-25.1c7.6-14,14.2-28.5,20.5-43c2.1-4.9,3.5-10,4.5-15.3c1.5-7.8-3.6-15.4-11.4-16.9
	c-3.9-1.2-7.8-2.2-11.7-3.3l0,0c-8.8-2.4-17.9,2.9-20.2,11.7c-2.1,7.4-4.9,14.7-8.4,21.6c-6.3,14.9-14.2,29.1-23.5,42.4l-2.5,3.3
	c-7.3,11-15.6,21.3-24.8,30.8c-9.6,10.6-20.2,20.2-31.7,28.7c-10.9,8.8-22.6,16.5-35,23.1c-12.1,7.1-24.8,13.1-38,17.8
	c-13,5.4-26.6,9.5-40.5,12.2c-13.4,3.2-27,5.2-40.7,5.8l-4.3,0.3c-16.5,1.3-33.1,0.8-49.5-1.5c-7.8-0.6-15.6-1.8-23.2-3.6
	c-11-1.9-21.8-4.8-32.4-8.5c-7-1.9-13.8-4.4-20.3-7.4c-1.2-0.5-2.5-1-3.8-1.5c-13.8-5.9-27.1-12.9-39.7-21.1
	c-1.7-0.6-3.2-1.6-4.5-2.8c-11.5-7.3-22.3-15.6-32.2-25c-10.8-9.2-20.8-19.5-29.6-30.7c-8.8-10.3-16.6-21.5-23.3-33.3
	c-7.3-11.7-13.5-24.1-18.4-36.9c-5.4-13-9.6-26.5-12.4-40.2c-3.4-13-5.4-26.4-6.1-39.8c-0.4-1.3-0.5-2.6-0.3-3.9
	c-1.1-16.2-0.6-32.4,1.7-48.5c0.5-6.7,1.6-13.3,3.3-19.8c2.1-11.8,5.3-23.4,9.5-34.7c1.9-6.4,4.4-12.7,7.4-18.7
	c6.2-15.4,14.2-30,24-43.5c0.6-1.6,1.6-3,2.9-4.1c7-10.9,15.2-21,24.5-30.1c9.4-10.7,20-20.4,31.5-28.8c10.9-8.8,22.6-16.5,34.9-23
	c12.1-7.2,24.8-13.1,38-17.8c13-5.4,26.6-9.4,40.4-12.1c13.1-3.3,26.5-5.2,40-5.8c1.7-0.5,3.4-0.6,5.1-0.3
	c16.5-1.3,33.1-0.8,49.5,1.6c7.6,0.5,15.2,1.7,22.6,3.6c11.3,1.9,22.5,4.8,33.3,8.8c7.3,2.1,14.5,4.7,21.4,7.9
	c14.3,5.6,27.9,12.6,40.9,20.8l-34,19l-3.3,1.9l-17.9,10c-6.6,3.8-13.2,7.7-19.8,11.2c-3.6,1.8-6.7,4.5-9,7.8c-1.4,3-2,6.2-1.7,9.5
	c3.3,7.5,7.5,14.7,12.4,21.2c4.2,1.1,8.2,3.4,12.8,2.5c6.7-2.8,13.2-6.2,19.4-10.1c2.8-1.4,5.6-2.9,8.3-4.4l17.9-10
	c11.9-7.1-9,4.6,3.3-1.9l35.7-20.1c12-7.1,24.2-13.9,36.5-20.5l11.7-6.7c2.5-1.3,4.8-3,6.9-5c3.9-6,3.6-13.7-0.7-19.4
	c-4-6.1-7.6-12.7-11.3-19.2c-7.1-11.9-14-23.6-21-35.4s-14.1-23.7-21-35.5s1.3,2.1-5.7-9.7l-9.2-15.5c-2.6-4.4-5.4-8.7-7.9-13.1
	l-0.1-0.2c-4.3-7.4-13.8-10-21.2-5.7c0,0,0,0,0,0c-4.7,2.5-9.3,5.1-13.9,7.8c-6.5,5.3-7.6,14.8-2.4,21.4l6.7,11.6l9.1,15.4
	c7,11.8-1.3-2.1,5.7,9.7l21,35.4l0.8,1.8c-1,0.2-1.4-0.7-2.1-1s-1.4-0.5-2.1-0.9c-31.2-16.3-64.7-27.7-99.3-33.7
	c-16.5-2.7-33.2-4.4-50-4.9l-28.8,0.6L283,67.3c-14.4,2.1-28.7,5-42.9,8.3c-13.8,3.7-27.2,8.6-40.6,13.4l-10.7,4.8
	c-34.6,15.5-66.3,36.8-93.7,63c-10.3,10.3-20.1,21.2-29.2,32.6l-10.2,14L40.1,228c-7.3,13.5-13.9,27.5-19.5,41.8
	C15.4,283.2,11.2,297,8,311c-4.8,21-7.5,42.4-8.1,63.9l0.7,30.6l1.8,16.3c2.3,13.7,5.1,27.3,8.3,40.8c4.1,13.3,8.6,26.5,13.6,39.5
	c5.9,12.4,12,25,18.9,36.6S58,561.4,66,572.3c9,10.8,18.4,21.3,28.3,31.3c10.8,9.8,21.9,19.5,33.5,28.5l14.2,10.1l24.6,14.7
	c1,0.5,2.1,0.9,3.1,1.4c21.1,11.1,43.4,19.9,66.4,26.2c26.8,7.2,54.3,11.3,82.1,12.1l30.4-0.9l16.7-1.6c14.4-2,28.7-4.9,42.9-8.2
	c13.6-4.1,27.3-8.2,40.4-13.6"/>
<g id="_15">
	<text transform="matrix(1 0 0 1 148.04 508.45)" class="st0 st1 st2">15</text>
</g>
</svg>
