<svg id="圖層_1" data-name="圖層 1" xmlns="http://www.w3.org/2000/svg" viewBox="0 0 507 413.93"><defs><style>.cls-1{fill:#fff;}</style></defs><path id="solid_long-arrow-alt-right" data-name="solid long-arrow-alt-right" class="cls-1" d="M382.06,65.3H100.67A11.19,11.19,0,0,0,89.48,76.49v52.2a11.19,11.19,0,0,0,11.19,11.18H382.06v42.92a22.37,22.37,0,0,0,38.18,15.81l80.2-80.21a22.36,22.36,0,0,0,0-31.63h0L420.24,6.54a22.37,22.37,0,0,0-38.18,15.81Z"/><path id="solid_long-arrow-alt-right-2" data-name="solid long-arrow-alt-right-2" class="cls-1" d="M292.58,274.09H11.19A11.19,11.19,0,0,0,0,285.28v52.2a11.19,11.19,0,0,0,11.19,11.18H292.58v42.92a22.37,22.37,0,0,0,38.18,15.81l80.2-80.2a22.38,22.38,0,0,0,0-31.64h0l-80.2-80.21a22.37,22.37,0,0,0-38.18,15.81Z"/></svg>