<svg id="圖層_1" data-name="圖層 1" xmlns="http://www.w3.org/2000/svg" viewBox="0 0 723 724"><path id="Fill_1" data-name="Fill 1" d="M461.43,27.92c7-6.64,14.08-13.28,21-20a18.56,18.56,0,0,1,24.32-4L533.39,29l19.4,18.72,25.88,25L599,92.28q12.6,12.8,25.88,24.92l19.44,18.72c3.4,3.36,6.68,6.84,10.2,10.08a21.32,21.32,0,0,1,8.8,15.72,17,17,0,0,1-5.76,12l-14,13.72q-9.93,8.84-19,18.4c-8.76,8-17.28,16-25.44,24.56-7,6.12-13.64,12.6-20,19.32q-13.49,12-26.08,25.16-10.44,9.24-20,19.32c-4.44,4-9,8.32-13.36,12.56A33.29,33.29,0,0,1,506.87,316a21.36,21.36,0,0,1-19.68-7.52c-4.76-5.08-10.08-9.68-15.2-14.48a53.84,53.84,0,0,1-10.44-12.8,50.65,50.65,0,0,1,0-11.28,65.07,65.07,0,0,1,8.84-9.92c3.6-3.32,7-6.84,10.52-10.28a1.68,1.68,0,0,0,1.52-.52q12-11.52,24.32-23.12c7.64-6.68,14.92-13.68,22.08-20.84l11.6-10.52H231.63c-6.36,0-12.76-.24-19.12,0a104.84,104.84,0,0,0-27,4,96.34,96.34,0,0,0-19.28,5.6,126,126,0,0,0-26.84,13.2,134.4,134.4,0,0,0-36.36,32,68.17,68.17,0,0,0-9.92,13.76,110,110,0,0,0-14.8,30.8A121.67,121.67,0,0,0,71,338.64a124.48,124.48,0,0,0,7.2,43.64,121.15,121.15,0,0,0,15,31.56,18,18,0,0,1-5.8,20.44c-6.8,6.16-13.48,12.52-20,19.16a21.23,21.23,0,0,1-19.64,7.4,22.09,22.09,0,0,1-12-9.92c-5-8-9.32-16-14-24A242.61,242.61,0,0,1,7.63,386.16a226.75,226.75,0,0,1-5.92-47.48A210.19,210.19,0,0,1,16.91,262c1.68-4,3.4-8,5.12-12.28A245.9,245.9,0,0,1,46.63,211,217.81,217.81,0,0,1,136,144.48c1.16-.48,2.24-1,3.36-1.6a272.45,272.45,0,0,1,46.16-12.2l15.72-1.6c10.12-1.08,20.28-.56,30.4-1H540.51l-12.84-11.76c-6.32-6.56-13.12-12.68-20-18.76C499,89,490.27,80.48,481,72.44L462.31,54.72a16.87,16.87,0,0,1-3.65-23.59A15.69,15.69,0,0,1,460.47,29l1-.92"/><path id="Fill_4" data-name="Fill 4" d="M263.43,695.8c-7,6.68-14.08,13.32-21.08,20a18.32,18.32,0,0,1-24,4l-26.12-24.68q-9.69-10.08-20-19.44-12.6-12.91-26-25-9.69-10.08-20-19.44Q113.42,618.32,100,606.32q-9.24-9.84-19.32-18.76c-4.44-4.4-8.92-8.72-13.28-13.24a16.92,16.92,0,0,1-5.92-12.64,22.16,22.16,0,0,1,8-13.76c4.2-4,8-8,12.28-12L99.27,519q14.19-13,27.72-26.76,9.6-8.52,18.4-17.76l27.72-26.72q9.55-8.52,18.4-17.76c5.64-5.36,11.4-10.64,16.92-16a25.77,25.77,0,0,1,10-6.36A19.69,19.69,0,0,1,236.67,414c5.4,5.56,11.2,10.76,16.8,16a46.61,46.61,0,0,1,9.88,12,25.62,25.62,0,0,1,0,10.32,36.2,36.2,0,0,1-8,9.8c-4,3.72-8,7.56-12,11.36-8.76,7.72-17.16,15.76-25.44,24-7.56,6.52-14.76,13.36-21.76,20.44l-10.72,10.24a244.35,244.35,0,0,0,32.92.56,38.39,38.39,0,0,0,9.52.32c12.2,0,24.4.48,36.6-.32a87.59,87.59,0,0,0,14.12.28c10.4,0,20.8.48,31.16-.32a44.87,44.87,0,0,0,10.36.32c12,0,24,.48,36-.32a126.88,126.88,0,0,0,17.44.28c9.56,0,19.12.48,28.64-.32a23.12,23.12,0,0,0,2.88.36h100a121.16,121.16,0,0,0,34.72-4.24,86.74,86.74,0,0,0,21.8-6.72,110.61,110.61,0,0,0,25.28-12.84,132.27,132.27,0,0,0,35-30.88,61.89,61.89,0,0,0,9.28-12.76A109.89,109.89,0,0,0,647,429a120.21,120.21,0,0,0,7.28-43.72A125.69,125.69,0,0,0,647,340.88a127.91,127.91,0,0,0-15-31.52,17.82,17.82,0,0,1,5.84-20c7-6.36,13.92-12.92,20.44-19.72A20.88,20.88,0,0,1,677,262.56a23.58,23.58,0,0,1,12.4,10.68c4.72,7.6,9,15.44,13.4,23.2a236,236,0,0,1,15.6,46.16,243.67,243.67,0,0,1,4.72,42.76,240.29,240.29,0,0,1-4.76,42.36A252.36,252.36,0,0,1,703,473.52a248.21,248.21,0,0,1-24,37.84,216.29,216.29,0,0,1-45.44,43.2c-1,.72-1.92,1.52-2.88,2.28a31.63,31.63,0,0,0-7,4.72,306,306,0,0,1-38.28,19,260.3,260.3,0,0,1-46.24,12.36L528,594.08c-11.6,1.28-23.24,1-34.88,1.52H184.67l11.64,10.6q10.51,10.75,21.88,20.72l26,24.52c6.08,6.32,12.6,12.24,19.2,18a16.58,16.58,0,0,1,.76,25.56l-.72.72"/><path id="Fill_7" data-name="Fill 7" d="M319.75,315.76a28.38,28.38,0,0,1,7.36-11.08c8.64-8.76,17.24-17.48,25.72-26.44a24.93,24.93,0,0,1,18.52-8.72,120.38,120.38,0,0,1,20,.4,13.24,13.24,0,0,1,11.2,14.64c0,10.36,0,20.72.24,31v46.32c0,14.28,0,28.52-.2,42.8,0,2.68,1.16,2.84,3,2.84a142.11,142.11,0,0,1,23.24.76,16,16,0,0,1,8.64,16.44v12a16,16,0,0,1-8,15.8,40.68,40.68,0,0,1-10.72,1H353.23a118.9,118.9,0,0,1-24.44-1.08,16.23,16.23,0,0,1-7.68-16V424.72a16,16,0,0,1,9.12-16.88,116.91,116.91,0,0,1,21-.6c3.16,0,4.6-.64,4.24-4.56s0-7,0-10.48c0-10.2.64-20.4,0-30.6V336.2l-2,2.76a11.77,11.77,0,0,1-16,4.61,11.54,11.54,0,0,1-2.62-2A71.39,71.39,0,0,1,321.71,325a14.06,14.06,0,0,1-2-9.28"/></svg>