<svg id="圖層_1" data-name="圖層 1" xmlns="http://www.w3.org/2000/svg" viewBox="0 0 702 560"><path d="M316.1,11.24,186.5,141.16H37.5A35,35,0,0,0,2.5,176V386a35,35,0,0,0,34.8,35.2H186.5L316.1,550.68a35,35,0,0,0,59.76-24.76V36A35,35,0,0,0,316.1,11.24Z"/><path d="M558.67,47.66a34.81,34.81,0,0,0-29.38,16.07c-.06.1-.13.2-.19.31a35.4,35.4,0,0,0,10.8,48.64c93,59,120.52,182.11,61.56,275.07a199.29,199.29,0,0,1-61.56,61.57A35.4,35.4,0,0,0,529.1,498a34.92,34.92,0,0,0,48.14,11l.18-.11a270.05,270.05,0,0,0,0-455.68,34.71,34.71,0,0,0-18.75-5.5Z"/><path d="M478.74,164.73a35,35,0,0,0-17.06,65.58l.3.17A57.48,57.48,0,0,1,462,332a35,35,0,0,0,33.76,61.32,127.52,127.52,0,0,0,0-224.2v0a34.89,34.89,0,0,0-17-4.43Z"/></svg>