<?xml version="1.0" encoding="utf-8"?>
<!-- Generator: Adobe Illustrator 24.3.0, SVG Export Plug-In . SVG Version: 6.00 Build 0)  -->
<svg version="1.1" id="圖層_1" xmlns="http://www.w3.org/2000/svg" xmlns:xlink="http://www.w3.org/1999/xlink" x="0px" y="0px"
	 viewBox="0 0 120 40" style="enable-background:new 0 0 120 40;" xml:space="preserve">
<style type="text/css">
	.st0{display:none;}
	.st1{display:inline;fill:#FFFFFF;}
	.st2{fill:#FFFFFF;}
</style>
<rect x="-7.5" width="135" height="41"/>
<g id="Group_57" class="st0">
	<path id="Path_24" class="st1" d="M113.8,41.5H6.2c-3.3,0-5.9-2.6-5.9-5.9V7.4c0-3.3,2.6-5.9,5.9-5.9h107.6c3.3,0,5.9,2.7,5.9,5.9
		v28.2C119.7,38.9,117.1,41.5,113.8,41.5z M6.2,2.9c-2.5,0-4.5,2-4.5,4.5v28.2c0,2.5,2,4.5,4.5,4.5h107.6c2.5,0,4.5-2,4.5-4.5V7.4
		c0-2.5-2-4.5-4.5-4.5L6.2,2.9z"/>
</g>
<g id="Group_58" transform="translate(36.528 8.374)" class="st0">
	<path id="Path_25" class="st1" d="M3.4,4.8H2.6c0-0.3-0.1-0.6-0.2-0.9H1.3C1.2,4.2,1.1,4.5,1,4.8H0.3c0-0.1,0.2-0.6,0.6-1.6
		c0.2-0.5,0.4-1.1,0.6-1.6h0.9c0.1,0.5,0.3,1.1,0.5,1.6C3.1,3.7,3.3,4.3,3.4,4.8z M2.3,3.4C2.1,3,2,2.5,1.9,2h0
		C1.7,2.5,1.6,3,1.4,3.4H2.3z"/>
	<path id="Path_26" class="st1" d="M6.6,4.8H6C5.8,4.4,5.6,4.1,5.3,3.7C5,3.3,4.7,2.8,4.5,2.3h0c0,0.3,0.1,0.7,0.1,1
		c0,0.4,0,0.9,0,1.5H4c0-0.5,0-1.1,0-1.7C4,2.5,4,2,4,1.6h0.7c0.2,0.4,0.4,0.7,0.6,1C5.6,3,5.9,3.5,6.1,3.9h0c0-0.3-0.1-0.7-0.1-1
		c0-0.4,0-0.9,0-1.4h0.6c0,0.4,0,0.9,0,1.5S6.6,4.3,6.6,4.8z"/>
	<path id="Path_27" class="st1" d="M10.2,3.1c0,0.5-0.2,0.9-0.5,1.2C9.5,4.7,9,4.9,8.5,4.8c-0.2,0-0.6,0-1,0c0-0.5,0-1.1,0-1.7
		c0-0.6,0-1.1,0-1.5h0.4c0.1,0,0.2,0,0.3,0c0.1,0,0.2,0,0.3,0c0.5,0,1,0.1,1.3,0.4C10.1,2.3,10.2,2.7,10.2,3.1z M9.6,3.2
		c0-0.3-0.1-0.6-0.3-0.8C9.1,2.2,8.7,2,8.4,2.1c-0.1,0-0.2,0-0.3,0c0,0.3,0,0.7,0,1c0,0.4,0,0.8,0,1.2c0.1,0,0.2,0,0.3,0
		c0.3,0,0.6-0.1,0.8-0.3C9.5,3.8,9.6,3.5,9.6,3.2L9.6,3.2z"/>
	<path id="Path_28" class="st1" d="M13.5,4.8h-0.7c-0.1-0.4-0.3-0.7-0.4-1.1c-0.1-0.1-0.3-0.2-0.5-0.2h-0.3c0,0.4,0,0.9,0,1.3h-0.7
		c0-0.5,0-1.1,0-1.7c0-0.6,0-1.1,0-1.5h0.4c0,0,0.2,0,0.3,0s0.3,0,0.4,0c0.8,0,1.1,0.3,1.1,0.8c0,0.4-0.3,0.8-0.7,0.9v0
		c0.2,0.1,0.3,0.2,0.4,0.4C13.2,4,13.4,4.4,13.5,4.8z M12.6,2.5C12.6,2.2,12.4,2,12,2c-0.1,0-0.3,0-0.4,0c0,0.3,0,0.6,0,1
		c0.1,0,0.2,0,0.2,0C12.4,3.1,12.6,2.9,12.6,2.5L12.6,2.5z"/>
	<path id="Path_29" class="st1" d="M17.1,3.1c0,0.5-0.2,0.9-0.5,1.3c-0.3,0.3-0.7,0.5-1.2,0.5c-0.4,0-0.8-0.2-1.1-0.5
		c-0.3-0.3-0.5-0.7-0.4-1.2c0-0.5,0.2-0.9,0.5-1.3c0.3-0.3,0.7-0.5,1.2-0.5c0.4,0,0.8,0.2,1.1,0.5C17,2.3,17.1,2.7,17.1,3.1z
		 M16.4,3.2c0-0.3-0.1-0.6-0.3-0.8C16,2.2,15.8,2,15.5,2c-0.2,0-0.5,0.1-0.6,0.3c-0.2,0.2-0.3,0.5-0.3,0.8c0,0.3,0.1,0.6,0.3,0.8
		c0.2,0.2,0.4,0.3,0.7,0.3c0.2,0,0.5-0.1,0.6-0.3C16.3,3.8,16.4,3.5,16.4,3.2L16.4,3.2z"/>
	<path id="Path_30" class="st1" d="M18.5,4.8h-0.7c0-0.5,0-1.1,0-1.7c0-0.6,0-1.1,0-1.5h0.7c0,0.4,0,0.9,0,1.5
		C18.5,3.7,18.5,4.3,18.5,4.8z"/>
	<path id="Path_31" class="st1" d="M22.1,3.1c0,0.5-0.2,0.9-0.5,1.2c-0.3,0.4-0.8,0.6-1.3,0.5c-0.2,0-0.6,0-1,0c0-0.5,0-1.1,0-1.7
		c0-0.6,0-1.1,0-1.5h0.4c0.1,0,0.2,0,0.3,0s0.2,0,0.3,0c0.5,0,1,0.1,1.3,0.4C22,2.3,22.1,2.7,22.1,3.1z M21.4,3.2
		c0-0.3-0.1-0.6-0.3-0.8c-0.2-0.2-0.5-0.4-0.8-0.3c-0.1,0-0.2,0-0.3,0c0,0.3,0,0.7,0,1c0,0.4,0,0.8,0,1.2c0.1,0,0.2,0,0.3,0
		c0.3,0,0.6-0.1,0.8-0.3C21.3,3.8,21.4,3.5,21.4,3.2L21.4,3.2z"/>
	<path id="Path_32" class="st1" d="M26.9,4.8h-0.8c0-0.3-0.1-0.6-0.2-0.9h-1.1c-0.1,0.3-0.2,0.6-0.2,0.9h-0.7c0-0.1,0.2-0.6,0.6-1.6
		c0.2-0.5,0.4-1.1,0.6-1.6h0.9c0.1,0.5,0.3,1.1,0.5,1.6C26.5,3.7,26.7,4.3,26.9,4.8z M25.7,3.4C25.6,3,25.4,2.5,25.3,2h0
		c0,0.1-0.1,0.5-0.4,1.4H25.7z"/>
	<path id="Path_33" class="st1" d="M29.8,2.4c0,0.3-0.1,0.7-0.4,0.9c-0.3,0.2-0.7,0.3-1.1,0.3c-0.1,0-0.1,0-0.2,0c0,0.3,0,0.7,0,1.2
		h-0.7c0-0.5,0-1,0-1.7c0-0.6,0-1.1,0-1.5h0.4c0.1,0,0.2,0,0.4,0c0.2,0,0.3,0,0.5,0c0.3,0,0.6,0.1,0.8,0.2
		C29.6,1.9,29.8,2.2,29.8,2.4z M29.1,2.6c0-0.4-0.2-0.5-0.7-0.5c-0.1,0-0.2,0-0.4,0c0,0.3,0,0.7,0,1.1c0,0,0.1,0,0.1,0
		C28.8,3.1,29.1,2.9,29.1,2.6L29.1,2.6z"/>
	<path id="Path_34" class="st1" d="M32.7,2.4c0,0.4-0.1,0.7-0.4,0.9c-0.3,0.2-0.7,0.3-1.1,0.3c-0.1,0-0.1,0-0.2,0c0,0.3,0,0.7,0,1.2
		h-0.7c0-0.5,0-1,0-1.7c0-0.6,0-1.1,0-1.5h0.4c0.1,0,0.2,0,0.4,0c0.2,0,0.3,0,0.5,0c0.3,0,0.6,0.1,0.8,0.2
		C32.6,1.9,32.7,2.2,32.7,2.4z M32.1,2.6c0-0.4-0.2-0.5-0.7-0.5c-0.1,0-0.2,0-0.4,0c0,0.3,0,0.7,0,1.1c0,0,0.1,0,0.1,0
		C31.8,3.1,32.1,2.9,32.1,2.6L32.1,2.6z"/>
	<path id="Path_35" class="st1" d="M37.6,3.1c0,0.5-0.2,0.9-0.5,1.3c-0.3,0.3-0.7,0.5-1.2,0.5c-0.4,0-0.8-0.2-1.1-0.5
		c-0.3-0.3-0.5-0.7-0.4-1.2c0-0.5,0.2-0.9,0.5-1.3c0.3-0.3,0.7-0.5,1.2-0.5c0.4,0,0.8,0.2,1.1,0.5C37.5,2.3,37.6,2.7,37.6,3.1z
		 M36.9,3.2c0-0.3-0.1-0.6-0.3-0.8C36.5,2.2,36.2,2,36,2c-0.2,0-0.5,0.1-0.6,0.3c-0.2,0.2-0.3,0.5-0.3,0.8c0,0.3,0.1,0.6,0.3,0.8
		c0.2,0.2,0.4,0.3,0.7,0.3c0.2,0,0.5-0.1,0.6-0.3C36.8,3.8,36.9,3.5,36.9,3.2L36.9,3.2z"/>
	<path id="Path_36" class="st1" d="M41,4.8h-0.6c-0.2-0.4-0.4-0.7-0.7-1.1c-0.3-0.4-0.6-0.9-0.8-1.4h0c0,0.3,0.1,0.7,0.1,1
		c0,0.4,0,0.9,0,1.5h-0.6c0-0.5,0-1.1,0-1.7c0-0.6,0-1.1,0-1.5H39c0.2,0.4,0.4,0.7,0.6,1c0.3,0.4,0.6,0.9,0.7,1.3h0
		c0-0.3-0.1-0.7-0.1-1c0-0.4,0-0.9,0-1.4H41c0,0.4,0,0.9,0,1.5S40.9,4.3,41,4.8z"/>
</g>
<g id="Group_59" transform="translate(36.3 15.555)" class="st0">
	<path id="Path_37" class="st1" d="M11.9,8c0.1,1.4-0.4,2.8-1.4,3.8c-1.1,1.1-2.6,1.8-4.2,1.7c-3.3,0-6-2.6-6.1-5.9s2.6-6,5.9-6.1
		c0.1,0,0.1,0,0.2,0c0.8,0,1.6,0.2,2.4,0.5c0.7,0.3,1.3,0.7,1.8,1.3l-1,1C8.6,3.4,7.5,2.9,6.3,2.9C3.7,2.9,1.7,5,1.7,7.5
		s2.1,4.6,4.6,4.6c1.2,0,2.3-0.5,3.2-1.3c0.6-0.6,0.9-1.5,1-2.3H6.3V7.1h5.6C11.9,7.4,11.9,7.7,11.9,8z"/>
	<path id="Path_38" class="st1" d="M13.6,6.3c1.6-1.6,4.2-1.6,5.8,0c1.5,1.7,1.5,4.3,0,6c-1.6,1.6-4.2,1.6-5.8,0
		C12.1,10.6,12.1,8,13.6,6.3z M14.7,11.4c0.9,1,2.5,1,3.5,0.1c0,0,0.1-0.1,0.1-0.1c1-1.2,1-2.9,0-4.1c-0.9-1-2.5-1-3.5-0.1
		c0,0-0.1,0.1-0.1,0.1C13.7,8.4,13.7,10.2,14.7,11.4z"/>
	<path id="Path_39" class="st1" d="M22.2,6.3c1.6-1.6,4.2-1.6,5.8,0c1.5,1.7,1.5,4.3,0,6c-1.6,1.6-4.2,1.6-5.8,0
		C20.7,10.6,20.7,8,22.2,6.3z M23.3,11.4c0.9,1,2.5,1,3.5,0.1c0,0,0.1-0.1,0.1-0.1c1-1.2,1-2.9,0-4.1c-0.9-1-2.5-1-3.5-0.1
		c0,0-0.1,0.1-0.1,0.1C22.3,8.4,22.3,10.2,23.3,11.4z"/>
	<path id="Path_40" class="st1" d="M33.5,17c-0.8,0-1.6-0.2-2.3-0.7c-0.5-0.4-1-1-1.3-1.6l1.3-0.6c0.2,0.4,0.4,0.8,0.8,1.1
		c0.4,0.3,0.9,0.4,1.4,0.4c0.7,0,1.4-0.2,1.9-0.7c0.5-0.5,0.7-1.3,0.7-2v-0.8h-0.1c-0.3,0.4-0.7,0.7-1.1,1c-0.5,0.3-1,0.4-1.6,0.4
		c-1,0-2-0.4-2.6-1.2c-1.5-1.7-1.5-4.2,0-6c0.7-0.8,1.6-1.2,2.6-1.2c0.6,0,1.1,0.1,1.6,0.4c0.4,0.2,0.8,0.6,1.1,1h0.1V5.4h1.4v7.5
		c0.1,1.1-0.3,2.3-1.2,3.1C35.6,16.6,34.6,17,33.5,17z M33.6,12.1c0.7,0,1.3-0.3,1.8-0.8c1-1.2,1-2.9,0-4.1c-0.9-1-2.4-1-3.4-0.1
		c0,0-0.1,0.1-0.1,0.1c-1,1.2-1,2.9,0,4.1C32.3,11.9,33,12.1,33.6,12.1z"/>
	<path id="Path_41" class="st1" d="M40.4,13.2h-1.5V1.8h1.5V13.2z"/>
	<path id="Path_42" class="st1" d="M45.3,13.5c-1.1,0-2.1-0.4-2.9-1.2c-0.8-0.8-1.2-1.9-1.1-3c0-1.1,0.4-2.1,1.1-2.9
		c0.7-0.8,1.7-1.3,2.8-1.2c1.1,0,2.1,0.4,2.8,1.1c0.7,0.8,1.1,1.9,1.1,3l0,0.3h-6.2c0,0.7,0.3,1.4,0.8,1.9c0.5,0.4,1.1,0.7,1.7,0.7
		c0.9,0.1,1.8-0.5,2.1-1.3l1.3,0.5c-0.3,0.6-0.7,1.2-1.3,1.5C46.8,13.3,46,13.5,45.3,13.5z M47.4,8.4c0-0.5-0.3-0.9-0.6-1.3
		c-0.5-0.4-1.1-0.7-1.7-0.6c-0.5,0-1,0.2-1.4,0.5c-0.4,0.4-0.7,0.8-0.8,1.4L47.4,8.4z"/>
	<path id="Path_43" class="st1" d="M54.8,13.2h-1.5V1.8h3.9c0.9,0,1.8,0.3,2.5,1c1.3,1.3,1.4,3.4,0.2,4.7c-0.1,0.1-0.1,0.1-0.2,0.2
		c-0.7,0.6-1.6,1-2.5,1h-2.4V13.2z M54.8,7.2h2.5c0.6,0,1.1-0.2,1.5-0.6c0.7-0.8,0.7-2,0-2.8c-0.4-0.4-0.9-0.6-1.5-0.6h-2.5V7.2z"/>
	<path id="Path_44" class="st1" d="M63.2,13.2h-1.5V1.8h1.5V13.2z"/>
	<path id="Path_45" class="st1" d="M67,13.5c-0.8,0-1.5-0.2-2.1-0.7c-0.6-0.5-0.9-1.2-0.8-1.9c0-0.8,0.3-1.6,1-2
		c0.7-0.5,1.6-0.8,2.5-0.7c0.7,0,1.5,0.1,2.1,0.5V8.4c0-0.5-0.2-1-0.6-1.4c-0.4-0.4-0.9-0.5-1.5-0.5c-0.4,0-0.8,0.1-1.2,0.3
		c-0.3,0.2-0.6,0.5-0.7,0.8L64.4,7c0.2-0.5,0.6-1,1.1-1.3c0.6-0.4,1.4-0.6,2.1-0.6c0.9,0,1.8,0.3,2.5,0.9c0.7,0.6,1,1.5,1,2.5v4.7
		h-1.4v-1.1h-0.1C69.1,13,68.1,13.5,67,13.5z M67.3,12.1c0.6,0,1.2-0.2,1.7-0.7c0.5-0.4,0.7-1,0.7-1.6c-0.5-0.4-1.2-0.6-1.9-0.5
		c-0.6,0-1.2,0.1-1.6,0.5c-0.3,0.3-0.5,0.7-0.5,1.1c0,0.4,0.2,0.7,0.5,0.9C66.5,12,66.9,12.1,67.3,12.1L67.3,12.1z"/>
	<path id="Path_46" class="st1" d="M74.3,16.7h-1.5l1.8-4l-3.2-7.4h1.6l2.3,5.6h0l2.3-5.6h1.6L74.3,16.7z"/>
</g>
<g id="Group_60" transform="translate(8.856 8.742)" class="st0">
	<path id="Path_47" class="st1" d="M0.3,14.1c0-3.7,0-7.3,0-11c0-0.4,0.1-0.9,0.4-1.2c0.1-0.1,0.2-0.2,0.4,0c2.5,2.5,4.9,5,7.4,7.5
		c1.6,1.6,3.2,3.2,4.8,4.9c0.2,0.2,0.2,0.2,0,0.4c-3.9,3.9-7.9,7.8-11.8,11.7c-0.1,0.2-0.4,0.2-0.6,0.1c0,0-0.1,0-0.1-0.1
		c-0.4-0.3-0.6-0.8-0.6-1.3c0-2.2,0-4.3,0-6.5C0.3,17.2,0.3,15.6,0.3,14.1L0.3,14.1z"/>
	<path id="Path_48" class="st1" d="M1.7,1.5c0.3,0,0.5,0.1,0.7,0.2c5,2.8,10,5.6,15.1,8.4c0.2,0.1,0.2,0.2,0,0.4
		c-1.1,1.1-2.2,2.2-3.3,3.3c-0.1,0.1-0.2,0.2-0.4,0c-4-4.1-8-8.1-12-12.2C1.8,1.6,1.8,1.6,1.7,1.5z"/>
	<path id="Path_49" class="st1" d="M2.8,26.4c3.6-3.7,7.3-7.4,10.9-11.1c0.2-0.2,0.3-0.2,0.5,0c0.9,1,1.9,1.9,2.8,2.9
		c0.2,0.2,0.2,0.2,0,0.4c-4.7,2.6-9.4,5.1-14,7.7C3,26.3,2.9,26.3,2.8,26.4z"/>
	<path id="Path_50" class="st1" d="M23.6,14.2c0,0.4-0.2,0.7-0.5,0.9c-0.2,0.2-0.5,0.3-0.7,0.4c-1.4,0.8-2.8,1.6-4.2,2.3
		c-0.1,0.1-0.3,0.1-0.4,0c0,0,0,0,0,0c-1-1-2-2.1-3-3.1c-0.1-0.1-0.2-0.2,0-0.4c1.2-1.2,2.4-2.3,3.5-3.5c0.1-0.1,0.3-0.2,0.4-0.1
		c0,0,0,0,0,0c1.4,0.8,2.8,1.6,4.2,2.4C23.3,13.3,23.6,13.7,23.6,14.2z"/>
</g>
<g>
	<g id="Group_63" transform="translate(9.738 7.765)">
		<g id="Group_62">
			<path id="Path_51" class="st2" d="M9.4,2.7h2.1c0.1,0,0.2-0.1,0.2-0.2s-0.1-0.2-0.2-0.2H9.4c-0.1,0-0.2,0.1-0.2,0.2
				S9.2,2.7,9.4,2.7z M10.4,21.1c-0.6,0-1.1,0.5-1.1,1.1c0,0.6,0.5,1.1,1.1,1.1c0.6,0,1.1-0.5,1.1-1.1c0,0,0,0,0,0
				C11.5,21.6,11,21.1,10.4,21.1z M5,20.2h10.7V4.3H5V20.2z M39.5,15c-0.5,0-1,0.2-1.4,0.5c-0.4,0.3-0.7,0.8-0.8,1.3
				c-0.1,0.2-0.1,0.4-0.1,0.6V19c0,0.6,0.2,1.2,0.6,1.7c0.4,0.5,1,0.7,1.6,0.7c0.7,0,1.4-0.3,1.8-0.9c0.5-0.7,0.7-1.5,0.6-2.4
				c0-0.8-0.2-1.6-0.6-2.2C40.8,15.3,40.2,14.9,39.5,15L39.5,15z M77.1,14.8c-0.8,0-1.5,0.4-1.9,1.1c-0.4,0.7-0.6,1.4-0.6,2.2
				c0,0.8,0.2,1.5,0.6,2.2c0.4,0.7,1.1,1.1,1.9,1.1c0.8,0,1.5-0.4,1.8-1.1c0.4-0.7,0.6-1.4,0.6-2.2c0-0.8-0.2-1.5-0.6-2.2
				C78.6,15.2,77.9,14.8,77.1,14.8L77.1,14.8z M49.7,15c-0.5,0-1,0.2-1.4,0.5c-0.4,0.3-0.7,0.8-0.8,1.3c-0.1,0.2-0.1,0.4-0.1,0.6V19
				c0,0.6,0.2,1.2,0.6,1.7c0.4,0.5,1,0.7,1.6,0.7c0.7,0,1.4-0.3,1.8-0.9c0.5-0.7,0.7-1.5,0.7-2.4c0-0.8-0.2-1.6-0.6-2.2
				C51.1,15.3,50.4,14.9,49.7,15z M28.3,11.6L28.3,11.6c-0.2,0.5-0.4,1.4-0.7,2.4l-1.1,3.4h3.5L29,14.1
				C28.9,13.7,28.7,12.9,28.3,11.6L28.3,11.6z M92.7,14.7c-0.7,0-1.3,0.3-1.6,0.8c-0.4,0.5-0.6,1-0.6,1.6h4.3c0-0.6-0.1-1.1-0.4-1.6
				C94,15,93.4,14.7,92.7,14.7L92.7,14.7z M37.4,5.6c0-0.1,0-0.2,0-0.3V4.6c-0.9,0-1.7,0.2-1.7,0.9c0,0.3,0.2,0.7,0.6,0.7
				c0,0,0.1,0,0.1,0C36.9,6.2,37.3,6,37.4,5.6L37.4,5.6z M26.2,2.6c-0.1-0.4-0.2-0.9-0.3-1.2h0c-0.1,0.4-0.2,0.8-0.3,1.2L25,4.2h1.7
				L26.2,2.6z M94.7,2.1c1.1,0,2.1,0.9,2.1,2.1c0,0.1,0,0.2,0,0.2c0,0.2,0,0.3,0,0.5h-3.2c0,0.7,0.6,1.3,1.3,1.2c0,0,0.1,0,0.1,0
				c0.5,0,0.9-0.1,1.3-0.2l0.2,0.8c-0.5,0.2-1.1,0.3-1.7,0.3c-1.2,0.1-2.3-0.8-2.5-2c0-0.1,0-0.2,0-0.4c-0.1-1.3,0.9-2.5,2.2-2.6
				C94.5,2.1,94.6,2.1,94.7,2.1L94.7,2.1z M75.5,2.2l0.1,0.7h0c0.3-0.5,0.9-0.8,1.5-0.8c0.8,0,1.7,0.5,1.7,2.1V7h-1.2V4.3
				c0-0.7-0.3-1.2-0.9-1.2c-0.4,0-0.8,0.3-0.9,0.7c0,0.1-0.1,0.3-0.1,0.4V7h-1.2V3.6c0-0.6,0-1,0-1.4L75.5,2.2z M62.8,2.1
				c1.1,0,2.1,0.9,2.1,2.1c0,0.1,0,0.2,0,0.2c0,0.2,0,0.3,0,0.5h-3.2c0,0.7,0.6,1.3,1.3,1.2c0,0,0.1,0,0.1,0c0.5,0,0.9-0.1,1.3-0.2
				l0.2,0.8c-0.5,0.2-1.1,0.3-1.7,0.3c-1.2,0.1-2.3-0.8-2.5-2c0-0.1,0-0.2,0-0.4c-0.1-1.3,0.9-2.5,2.2-2.6
				C62.7,2.1,62.7,2.1,62.8,2.1L62.8,2.1z M57.8,0h1.2v7h-1.2V0z M48.3,2.9c-0.5,0-0.9,0.1-1.3,0.4l-0.2-0.8
				c0.5-0.3,1.1-0.4,1.7-0.4c1-0.1,1.9,0.6,2,1.6c0,0.1,0,0.3,0,0.4v1.7c0,0.4,0,0.8,0.1,1.2h-1.1l-0.1-0.5h0
				c-0.3,0.4-0.9,0.7-1.4,0.6c-0.8,0-1.5-0.6-1.5-1.3c0,0,0-0.1,0-0.1c0-1.2,1.1-1.8,2.8-1.8V3.8C49.2,3.5,49.1,2.9,48.3,2.9
				L48.3,2.9z M41.1,0.2c0.4,0,0.6,0.3,0.6,0.7c0,0.4-0.3,0.6-0.7,0.6c-0.3,0-0.6-0.3-0.6-0.6C40.4,0.5,40.7,0.2,41.1,0.2
				C41.1,0.2,41.1,0.2,41.1,0.2L41.1,0.2z M41.7,2.2V7h-1.2V2.2L41.7,2.2z M25.1,0.4h1.5L28.8,7h-1.3l-0.6-1.9h-2.1L24.2,7H23
				L25.1,0.4z M17.1,22.3c0,1.2-0.9,2.1-2.1,2.1H5.9c-1.2,0-2.1-0.9-2.1-2.1V2.1C3.8,1,4.7,0,5.9,0H15c1.2,0,2.1,0.9,2.1,2.1V22.3z
				 M31.6,22.8L30.4,19h-4.2l-1.1,3.8H23l4.1-12.9h2.6l4.2,12.9H31.6z M32.1,7h-1.2l-1.8-4.8h1.3l0.8,2.4c0.1,0.4,0.2,0.8,0.3,1.2h0
				c0.1-0.4,0.2-0.8,0.3-1.2l0.8-2.4h1.3L32.1,7z M34.6,5.7c0-1.2,1.1-1.8,2.8-1.8V3.8c0-0.3-0.1-0.8-1-0.8c-0.5,0-0.9,0.1-1.3,0.4
				l-0.2-0.8c0.5-0.3,1.1-0.4,1.7-0.4c1-0.1,1.9,0.6,2,1.6c0,0.1,0,0.3,0,0.4v1.7c0,0.4,0,0.8,0.1,1.2h-1.1l-0.1-0.5h0
				c-0.3,0.4-0.9,0.7-1.4,0.6C35.3,7.1,34.7,6.5,34.6,5.7C34.6,5.7,34.6,5.7,34.6,5.7L34.6,5.7z M42.7,21.8
				c-0.7,0.8-1.8,1.2-2.9,1.2c-1.1,0.1-2.1-0.4-2.7-1.3v4.9h-2.1v-10c0-1,0-2-0.1-3.1h1.8L37,15h0c1.1-1.7,3.4-2.2,5.1-1.1
				c0.3,0.2,0.6,0.4,0.8,0.7c0.8,1,1.2,2.2,1.1,3.4C44.1,19.4,43.6,20.8,42.7,21.8L42.7,21.8z M44.8,7h-1.2V0h1.2V7z M52.9,21.8
				C52.1,22.6,51.1,23,50,23c-1.1,0.1-2.1-0.4-2.6-1.3v4.9h-2.1v-10c0-1,0-2-0.1-3.1H47l0.1,1.5h0c1.1-1.7,3.4-2.2,5.1-1.1
				c0.3,0.2,0.6,0.4,0.8,0.7c0.8,1,1.2,2.2,1.1,3.4C54.3,19.4,53.8,20.8,52.9,21.8L52.9,21.8z M54.3,7.1c-0.6,0-1.2-0.3-1.5-0.8h0
				L52.7,7h-1c0-0.3,0-0.9,0-1.3V0h1.2v2.8h0c0.3-0.5,0.9-0.8,1.5-0.8c1.2,0,2,1,2,2.4c0.2,1.3-0.7,2.4-2,2.6
				C54.4,7.1,54.4,7.1,54.3,7.1L54.3,7.1z M64.7,21.9c-1,0.8-2.2,1.2-3.5,1.1c-1.2,0.1-2.3-0.2-3.3-0.8l0.5-1.7
				c0.9,0.5,1.9,0.8,3,0.8c0.6,0,1.3-0.1,1.8-0.5c0.4-0.3,0.7-0.9,0.6-1.4c0-0.5-0.2-1-0.5-1.3c-0.5-0.4-1.1-0.8-1.8-1
				c-2.3-0.8-3.4-2.1-3.4-3.7c0-1,0.4-2,1.2-2.6c0.9-0.7,2-1.1,3.2-1c1,0,2,0.2,2.9,0.6L64.8,12c-0.8-0.4-1.6-0.6-2.5-0.6
				c-0.6,0-1.2,0.2-1.7,0.5c-0.3,0.3-0.5,0.7-0.5,1.2c0,0.5,0.2,1,0.6,1.3c0.6,0.4,1.2,0.8,1.9,1c0.9,0.3,1.8,0.9,2.4,1.6
				c0.5,0.6,0.8,1.4,0.8,2.2C65.9,20.2,65.4,21.2,64.7,21.9L64.7,21.9z M72,15.1h-2.3v4.5c0,1.1,0.4,1.7,1.2,1.7
				c0.3,0,0.6,0,0.9-0.1l0.1,1.6c-0.5,0.2-1.1,0.2-1.6,0.2c-0.7,0-1.4-0.2-1.9-0.7c-0.5-0.7-0.8-1.6-0.7-2.5v-4.7h-1.4v-1.5h1.4
				v-1.7l2-0.6v2.3H72L72,15.1z M70.8,7.1c-1.3,0.1-2.4-0.9-2.4-2.2c0-0.1,0-0.2,0-0.2c-0.1-1.3,0.9-2.4,2.2-2.5c0.1,0,0.2,0,0.3,0
				c1.3,0,2.3,0.9,2.4,2.2c0,0.1,0,0.2,0,0.3c0.1,1.3-0.9,2.4-2.2,2.5C71,7.1,70.9,7.1,70.8,7.1L70.8,7.1z M80.4,21.6
				c-0.9,0.9-2.1,1.5-3.4,1.4c-1.2,0.1-2.4-0.4-3.3-1.4c-0.8-0.9-1.3-2.2-1.2-3.4c-0.1-1.3,0.4-2.6,1.2-3.5c0.9-0.9,2.1-1.4,3.4-1.4
				c1.2-0.1,2.4,0.4,3.3,1.4c0.8,0.9,1.2,2.2,1.2,3.4C81.7,19.4,81.3,20.6,80.4,21.6L80.4,21.6z M82.6,2.2h0.7V1.3L84.4,1v1.2h1.1
				v0.9h-1.1v2.1c0,0.6,0.2,0.9,0.6,0.9c0.2,0,0.3,0,0.5,0l0,0.9C85.3,7,85,7.1,84.7,7.1c-0.4,0-0.8-0.1-1-0.4
				c-0.3-0.4-0.4-0.9-0.4-1.3V3.1h-0.7L82.6,2.2z M87.9,15.3c-0.2,0-0.4-0.1-0.6-0.1c-0.7,0-1.3,0.3-1.7,0.8
				c-0.4,0.5-0.5,1.2-0.5,1.8v4.9h-2.1v-6.4c0-1.1,0-2-0.1-2.9h1.8l0.1,1.8h0.1c0.2-0.6,0.6-1.1,1-1.5c0.4-0.3,1-0.5,1.5-0.5
				c0.2,0,0.3,0,0.5,0L87.9,15.3z M88.2,4.1V7H87V0h1.2v2.8h0c0.2-0.2,0.4-0.4,0.6-0.5c0.3-0.1,0.5-0.2,0.8-0.2
				c0.8,0,1.7,0.5,1.7,2.1V7h-1.2V4.3c0-0.7-0.3-1.2-0.9-1.2c-0.4,0-0.8,0.3-0.9,0.7C88.2,3.9,88.2,4,88.2,4.1L88.2,4.1z M96.7,18.7
				h-6.2c0,0.8,0.3,1.6,0.9,2.1c0.6,0.5,1.3,0.7,2,0.7c0.9,0,1.7-0.1,2.5-0.4l0.3,1.4c-1,0.4-2,0.6-3.1,0.6
				c-1.3,0.1-2.5-0.4-3.4-1.3c-0.9-0.9-1.3-2.2-1.2-3.4c0-1.3,0.4-2.5,1.1-3.5c0.8-1,2-1.5,3.2-1.5c1.2-0.1,2.4,0.5,3,1.5
				C96.6,16,96.9,17.3,96.7,18.7L96.7,18.7z M54,3c-0.5,0-1,0.4-1.1,0.9c0,0.1,0,0.2,0,0.3V5c0,0.1,0,0.2,0,0.3
				c0.1,0.5,0.6,0.8,1.1,0.8c0.8,0,1.2-0.6,1.2-1.6C55.2,3.7,54.8,3,54,3L54,3z M62.7,2.9c-0.6,0-1.1,0.5-1.1,1.2h2.1
				c0.1-0.6-0.3-1.1-0.9-1.2C62.8,2.9,62.8,2.9,62.7,2.9L62.7,2.9z M70.8,3c-0.9,0-1.2,0.8-1.2,1.6c0,0.9,0.5,1.6,1.2,1.6
				c0.7,0,1.2-0.7,1.2-1.6C72,3.8,71.7,3,70.8,3L70.8,3z M47.6,5.5c0,0.3,0.2,0.7,0.6,0.7c0,0,0.1,0,0.1,0c0.4,0,0.8-0.3,1-0.7
				c0-0.1,0-0.2,0-0.3V4.6C48.4,4.6,47.6,4.8,47.6,5.5z M94.6,2.9c-0.6,0-1.1,0.5-1.1,1.2h2.1c0.1-0.6-0.3-1.1-0.9-1.2
				C94.7,2.9,94.6,2.9,94.6,2.9L94.6,2.9z"/>
		</g>
	</g>
	<g id="Group_64">
		<path id="Path_52" class="st2" d="M110.8,40H9.2c-3,0-5.4-2.4-5.4-5.4V5.4c0-3,2.4-5.4,5.4-5.4h101.7c3,0,5.4,2.4,5.4,5.4v29.2
			C116.2,37.6,113.8,40,110.8,40z M9.2,1.4c-2.2,0-4,1.8-4,4v29.2c0,2.2,1.8,4,4,4h101.7c2.2,0,4-1.8,4-4V5.4c0-2.2-1.8-4-4-4
			L9.2,1.4z"/>
	</g>
</g>
</svg>
