<?xml version="1.0" encoding="utf-8"?>
<!-- Generator: Adobe Illustrator 24.3.0, SVG Export Plug-In . SVG Version: 6.00 Build 0)  -->
<svg version="1.1" id="圖層_1" xmlns="http://www.w3.org/2000/svg" xmlns:xlink="http://www.w3.org/1999/xlink" x="0px" y="0px"
	 viewBox="0 0 120 40" style="enable-background:new 0 0 120 40;" xml:space="preserve">
<style type="text/css">
	.st0{fill:#FFFFFF;}
</style>
<rect x="-7.5" width="135" height="41"/>
<g id="Group_57">
	<path id="Path_24" class="st0" d="M113.8,40.5H6.2c-3.3,0-5.9-2.6-5.9-5.9V6.4c0-3.3,2.6-5.9,5.9-5.9h107.6c3.3,0,5.9,2.7,5.9,5.9
		v28.2C119.7,37.9,117.1,40.5,113.8,40.5z M6.2,1.9c-2.5,0-4.5,2-4.5,4.5v28.2c0,2.5,2,4.5,4.5,4.5h107.6c2.5,0,4.5-2,4.5-4.5V6.4
		c0-2.5-2-4.5-4.5-4.5L6.2,1.9z"/>
</g>
<g id="Group_58" transform="translate(36.528 8.374)">
	<path id="Path_25" class="st0" d="M3.4,3.8H2.6c0-0.3-0.1-0.6-0.2-0.9H1.3C1.2,3.2,1.1,3.5,1,3.8H0.3c0-0.1,0.2-0.6,0.6-1.6
		c0.2-0.5,0.4-1.1,0.6-1.6h0.9c0.1,0.5,0.3,1.1,0.5,1.6C3.1,2.7,3.3,3.3,3.4,3.8z M2.3,2.4C2.1,2,2,1.5,1.9,1h0
		C1.7,1.5,1.6,2,1.4,2.4H2.3z"/>
	<path id="Path_26" class="st0" d="M6.6,3.8H6C5.8,3.4,5.6,3.1,5.3,2.7C5,2.3,4.7,1.8,4.5,1.3h0c0,0.3,0.1,0.7,0.1,1
		c0,0.4,0,0.9,0,1.5H4c0-0.5,0-1.1,0-1.7C4,1.5,4,1,4,0.6h0.7c0.2,0.4,0.4,0.7,0.6,1C5.6,2,5.9,2.5,6.1,2.9h0c0-0.3-0.1-0.7-0.1-1
		c0-0.4,0-0.9,0-1.4h0.6c0,0.4,0,0.9,0,1.5S6.6,3.3,6.6,3.8z"/>
	<path id="Path_27" class="st0" d="M10.2,2.1c0,0.5-0.2,0.9-0.5,1.2C9.5,3.7,9,3.9,8.5,3.8c-0.2,0-0.6,0-1,0c0-0.5,0-1.1,0-1.7
		c0-0.6,0-1.1,0-1.5h0.4c0.1,0,0.2,0,0.3,0c0.1,0,0.2,0,0.3,0c0.5,0,1,0.1,1.3,0.4C10.1,1.3,10.2,1.7,10.2,2.1z M9.6,2.2
		c0-0.3-0.1-0.6-0.3-0.8C9.1,1.2,8.7,1,8.4,1.1c-0.1,0-0.2,0-0.3,0c0,0.3,0,0.7,0,1c0,0.4,0,0.8,0,1.2c0.1,0,0.2,0,0.3,0
		c0.3,0,0.6-0.1,0.8-0.3C9.5,2.8,9.6,2.5,9.6,2.2L9.6,2.2z"/>
	<path id="Path_28" class="st0" d="M13.5,3.8h-0.7c-0.1-0.4-0.3-0.7-0.4-1.1c-0.1-0.1-0.3-0.2-0.5-0.2h-0.3c0,0.4,0,0.9,0,1.3h-0.7
		c0-0.5,0-1.1,0-1.7c0-0.6,0-1.1,0-1.5h0.4c0,0,0.2,0,0.3,0s0.3,0,0.4,0c0.8,0,1.1,0.3,1.1,0.8c0,0.4-0.3,0.8-0.7,0.9v0
		c0.2,0.1,0.3,0.2,0.4,0.4C13.2,3,13.4,3.4,13.5,3.8z M12.6,1.5C12.6,1.2,12.4,1,12,1c-0.1,0-0.3,0-0.4,0c0,0.3,0,0.6,0,1
		c0.1,0,0.2,0,0.2,0C12.4,2.1,12.6,1.9,12.6,1.5L12.6,1.5z"/>
	<path id="Path_29" class="st0" d="M17.1,2.1c0,0.5-0.2,0.9-0.5,1.3c-0.3,0.3-0.7,0.5-1.2,0.5c-0.4,0-0.8-0.2-1.1-0.5
		c-0.3-0.3-0.5-0.7-0.4-1.2c0-0.5,0.2-0.9,0.5-1.3c0.3-0.3,0.7-0.5,1.2-0.5c0.4,0,0.8,0.2,1.1,0.5C17,1.3,17.1,1.7,17.1,2.1z
		 M16.4,2.2c0-0.3-0.1-0.6-0.3-0.8C16,1.2,15.8,1,15.5,1c-0.2,0-0.5,0.1-0.6,0.3c-0.2,0.2-0.3,0.5-0.3,0.8c0,0.3,0.1,0.6,0.3,0.8
		c0.2,0.2,0.4,0.3,0.7,0.3c0.2,0,0.5-0.1,0.6-0.3C16.3,2.8,16.4,2.5,16.4,2.2L16.4,2.2z"/>
	<path id="Path_30" class="st0" d="M18.5,3.8h-0.7c0-0.5,0-1.1,0-1.7c0-0.6,0-1.1,0-1.5h0.7c0,0.4,0,0.9,0,1.5
		C18.5,2.7,18.5,3.3,18.5,3.8z"/>
	<path id="Path_31" class="st0" d="M22.1,2.1c0,0.5-0.2,0.9-0.5,1.2c-0.3,0.4-0.8,0.6-1.3,0.5c-0.2,0-0.6,0-1,0c0-0.5,0-1.1,0-1.7
		c0-0.6,0-1.1,0-1.5h0.4c0.1,0,0.2,0,0.3,0s0.2,0,0.3,0c0.5,0,1,0.1,1.3,0.4C22,1.3,22.1,1.7,22.1,2.1z M21.4,2.2
		c0-0.3-0.1-0.6-0.3-0.8c-0.2-0.2-0.5-0.4-0.8-0.3c-0.1,0-0.2,0-0.3,0c0,0.3,0,0.7,0,1c0,0.4,0,0.8,0,1.2c0.1,0,0.2,0,0.3,0
		c0.3,0,0.6-0.1,0.8-0.3C21.3,2.8,21.4,2.5,21.4,2.2L21.4,2.2z"/>
	<path id="Path_32" class="st0" d="M26.9,3.8h-0.8c0-0.3-0.1-0.6-0.2-0.9h-1.1c-0.1,0.3-0.2,0.6-0.2,0.9h-0.7c0-0.1,0.2-0.6,0.6-1.6
		c0.2-0.5,0.4-1.1,0.6-1.6h0.9c0.1,0.5,0.3,1.1,0.5,1.6C26.5,2.7,26.7,3.3,26.9,3.8z M25.7,2.4C25.6,2,25.4,1.5,25.3,1h0
		c0,0.1-0.1,0.5-0.4,1.4H25.7z"/>
	<path id="Path_33" class="st0" d="M29.8,1.4c0,0.3-0.1,0.7-0.4,0.9c-0.3,0.2-0.7,0.3-1.1,0.3c-0.1,0-0.1,0-0.2,0c0,0.3,0,0.7,0,1.2
		h-0.7c0-0.5,0-1,0-1.7c0-0.6,0-1.1,0-1.5h0.4c0.1,0,0.2,0,0.4,0c0.2,0,0.3,0,0.5,0c0.3,0,0.6,0.1,0.8,0.2
		C29.6,0.9,29.8,1.2,29.8,1.4z M29.1,1.6c0-0.4-0.2-0.5-0.7-0.5c-0.1,0-0.2,0-0.4,0c0,0.3,0,0.7,0,1.1c0,0,0.1,0,0.1,0
		C28.8,2.1,29.1,1.9,29.1,1.6L29.1,1.6z"/>
	<path id="Path_34" class="st0" d="M32.7,1.4c0,0.4-0.1,0.7-0.4,0.9c-0.3,0.2-0.7,0.3-1.1,0.3c-0.1,0-0.1,0-0.2,0c0,0.3,0,0.7,0,1.2
		h-0.7c0-0.5,0-1,0-1.7c0-0.6,0-1.1,0-1.5h0.4c0.1,0,0.2,0,0.4,0c0.2,0,0.3,0,0.5,0c0.3,0,0.6,0.1,0.8,0.2
		C32.6,0.9,32.7,1.2,32.7,1.4z M32.1,1.6c0-0.4-0.2-0.5-0.7-0.5c-0.1,0-0.2,0-0.4,0c0,0.3,0,0.7,0,1.1c0,0,0.1,0,0.1,0
		C31.8,2.1,32.1,1.9,32.1,1.6L32.1,1.6z"/>
	<path id="Path_35" class="st0" d="M37.6,2.1c0,0.5-0.2,0.9-0.5,1.3c-0.3,0.3-0.7,0.5-1.2,0.5c-0.4,0-0.8-0.2-1.1-0.5
		c-0.3-0.3-0.5-0.7-0.4-1.2c0-0.5,0.2-0.9,0.5-1.3c0.3-0.3,0.7-0.5,1.2-0.5c0.4,0,0.8,0.2,1.1,0.5C37.5,1.3,37.6,1.7,37.6,2.1z
		 M36.9,2.2c0-0.3-0.1-0.6-0.3-0.8C36.5,1.2,36.2,1,36,1c-0.2,0-0.5,0.1-0.6,0.3c-0.2,0.2-0.3,0.5-0.3,0.8c0,0.3,0.1,0.6,0.3,0.8
		c0.2,0.2,0.4,0.3,0.7,0.3c0.2,0,0.5-0.1,0.6-0.3C36.8,2.8,36.9,2.5,36.9,2.2L36.9,2.2z"/>
	<path id="Path_36" class="st0" d="M41,3.8h-0.6c-0.2-0.4-0.4-0.7-0.7-1.1c-0.3-0.4-0.6-0.9-0.8-1.4h0c0,0.3,0.1,0.7,0.1,1
		c0,0.4,0,0.9,0,1.5h-0.6c0-0.5,0-1.1,0-1.7c0-0.6,0-1.1,0-1.5H39c0.2,0.4,0.4,0.7,0.6,1c0.3,0.4,0.6,0.9,0.7,1.3h0
		c0-0.3-0.1-0.7-0.1-1c0-0.4,0-0.9,0-1.4H41c0,0.4,0,0.9,0,1.5S40.9,3.3,41,3.8z"/>
</g>
<g id="Group_59" transform="translate(36.3 15.555)">
	<path id="Path_37" class="st0" d="M11.9,7c0.1,1.4-0.4,2.8-1.4,3.8c-1.1,1.1-2.6,1.8-4.2,1.7c-3.3,0-6-2.6-6.1-5.9s2.6-6,5.9-6.1
		c0.1,0,0.1,0,0.2,0c0.8,0,1.6,0.2,2.4,0.5c0.7,0.3,1.3,0.7,1.8,1.3l-1,1C8.6,2.4,7.5,1.9,6.3,1.9C3.7,1.9,1.7,4,1.7,6.5
		s2.1,4.6,4.6,4.6c1.2,0,2.3-0.5,3.2-1.3c0.6-0.6,0.9-1.5,1-2.3H6.3V6.1h5.6C11.9,6.4,11.9,6.7,11.9,7z"/>
	<path id="Path_38" class="st0" d="M13.6,5.3c1.6-1.6,4.2-1.6,5.8,0c1.5,1.7,1.5,4.3,0,6c-1.6,1.6-4.2,1.6-5.8,0
		C12.1,9.6,12.1,7,13.6,5.3z M14.7,10.4c0.9,1,2.5,1,3.5,0.1c0,0,0.1-0.1,0.1-0.1c1-1.2,1-2.9,0-4.1c-0.9-1-2.5-1-3.5-0.1
		c0,0-0.1,0.1-0.1,0.1C13.7,7.4,13.7,9.2,14.7,10.4z"/>
	<path id="Path_39" class="st0" d="M22.2,5.3c1.6-1.6,4.2-1.6,5.8,0c1.5,1.7,1.5,4.3,0,6c-1.6,1.6-4.2,1.6-5.8,0
		C20.7,9.6,20.7,7,22.2,5.3z M23.3,10.4c0.9,1,2.5,1,3.5,0.1c0,0,0.1-0.1,0.1-0.1c1-1.2,1-2.9,0-4.1c-0.9-1-2.5-1-3.5-0.1
		c0,0-0.1,0.1-0.1,0.1C22.3,7.4,22.3,9.2,23.3,10.4z"/>
	<path id="Path_40" class="st0" d="M33.5,16c-0.8,0-1.6-0.2-2.3-0.7c-0.5-0.4-1-1-1.3-1.6l1.3-0.6c0.2,0.4,0.4,0.8,0.8,1.1
		c0.4,0.3,0.9,0.4,1.4,0.4c0.7,0,1.4-0.2,1.9-0.7c0.5-0.5,0.7-1.3,0.7-2v-0.8h-0.1c-0.3,0.4-0.7,0.7-1.1,1c-0.5,0.3-1,0.4-1.6,0.4
		c-1,0-2-0.4-2.6-1.2c-1.5-1.7-1.5-4.2,0-6c0.7-0.8,1.6-1.2,2.6-1.2c0.6,0,1.1,0.1,1.6,0.4c0.4,0.2,0.8,0.6,1.1,1h0.1V4.4h1.4v7.5
		c0.1,1.1-0.3,2.3-1.2,3.1C35.6,15.6,34.6,16,33.5,16z M33.6,11.1c0.7,0,1.3-0.3,1.8-0.8c1-1.2,1-2.9,0-4.1c-0.9-1-2.4-1-3.4-0.1
		c0,0-0.1,0.1-0.1,0.1c-1,1.2-1,2.9,0,4.1C32.3,10.9,33,11.1,33.6,11.1z"/>
	<path id="Path_41" class="st0" d="M40.4,12.2h-1.5V0.8h1.5V12.2z"/>
	<path id="Path_42" class="st0" d="M45.3,12.5c-1.1,0-2.1-0.4-2.9-1.2c-0.8-0.8-1.2-1.9-1.1-3c0-1.1,0.4-2.1,1.1-2.9
		c0.7-0.8,1.7-1.3,2.8-1.2c1.1,0,2.1,0.4,2.8,1.1c0.7,0.8,1.1,1.9,1.1,3l0,0.3h-6.2c0,0.7,0.3,1.4,0.8,1.9c0.5,0.4,1.1,0.7,1.7,0.7
		c0.9,0.1,1.8-0.5,2.1-1.3l1.3,0.5c-0.3,0.6-0.7,1.2-1.3,1.5C46.8,12.3,46,12.5,45.3,12.5z M47.4,7.4c0-0.5-0.3-0.9-0.6-1.3
		c-0.5-0.4-1.1-0.7-1.7-0.6c-0.5,0-1,0.2-1.4,0.5c-0.4,0.4-0.7,0.8-0.8,1.4L47.4,7.4z"/>
	<path id="Path_43" class="st0" d="M54.8,12.2h-1.5V0.8h3.9c0.9,0,1.8,0.3,2.5,1c1.3,1.3,1.4,3.4,0.2,4.7c-0.1,0.1-0.1,0.1-0.2,0.2
		c-0.7,0.6-1.6,1-2.5,1h-2.4V12.2z M54.8,6.2h2.5c0.6,0,1.1-0.2,1.5-0.6c0.7-0.8,0.7-2,0-2.8c-0.4-0.4-0.9-0.6-1.5-0.6h-2.5V6.2z"/>
	<path id="Path_44" class="st0" d="M63.2,12.2h-1.5V0.8h1.5V12.2z"/>
	<path id="Path_45" class="st0" d="M67,12.5c-0.8,0-1.5-0.2-2.1-0.7c-0.6-0.5-0.9-1.2-0.8-1.9c0-0.8,0.3-1.6,1-2
		c0.7-0.5,1.6-0.8,2.5-0.7c0.7,0,1.5,0.1,2.1,0.5V7.4c0-0.5-0.2-1-0.6-1.4c-0.4-0.4-0.9-0.5-1.5-0.5c-0.4,0-0.8,0.1-1.2,0.3
		c-0.3,0.2-0.6,0.5-0.7,0.8L64.4,6c0.2-0.5,0.6-1,1.1-1.3c0.6-0.4,1.4-0.6,2.1-0.6c0.9,0,1.8,0.3,2.5,0.9c0.7,0.6,1,1.5,1,2.5v4.7
		h-1.4v-1.1h-0.1C69.1,12,68.1,12.5,67,12.5z M67.3,11.1c0.6,0,1.2-0.2,1.7-0.7c0.5-0.4,0.7-1,0.7-1.6c-0.5-0.4-1.2-0.6-1.9-0.5
		c-0.6,0-1.2,0.1-1.6,0.5c-0.3,0.3-0.5,0.7-0.5,1.1c0,0.4,0.2,0.7,0.5,0.9C66.5,11,66.9,11.1,67.3,11.1L67.3,11.1z"/>
	<path id="Path_46" class="st0" d="M74.3,15.7h-1.5l1.8-4l-3.2-7.4h1.6l2.3,5.6h0l2.3-5.6h1.6L74.3,15.7z"/>
</g>
<g id="Group_60" transform="translate(8.856 8.742)">
	<path id="Path_47" class="st0" d="M0.3,13.1c0-3.7,0-7.3,0-11c0-0.4,0.1-0.9,0.4-1.2c0.1-0.1,0.2-0.2,0.4,0c2.5,2.5,4.9,5,7.4,7.5
		c1.6,1.6,3.2,3.2,4.8,4.9c0.2,0.2,0.2,0.2,0,0.4c-3.9,3.9-7.9,7.8-11.8,11.7c-0.1,0.2-0.4,0.2-0.6,0.1c0,0-0.1,0-0.1-0.1
		c-0.4-0.3-0.6-0.8-0.6-1.3c0-2.2,0-4.3,0-6.5C0.3,16.2,0.3,14.6,0.3,13.1L0.3,13.1z"/>
	<path id="Path_48" class="st0" d="M1.7,0.5c0.3,0,0.5,0.1,0.7,0.2c5,2.8,10,5.6,15.1,8.4c0.2,0.1,0.2,0.2,0,0.4
		c-1.1,1.1-2.2,2.2-3.3,3.3c-0.1,0.1-0.2,0.2-0.4,0c-4-4.1-8-8.1-12-12.2C1.8,0.6,1.8,0.6,1.7,0.5z"/>
	<path id="Path_49" class="st0" d="M2.8,25.4c3.6-3.7,7.3-7.4,10.9-11.1c0.2-0.2,0.3-0.2,0.5,0c0.9,1,1.9,1.9,2.8,2.9
		c0.2,0.2,0.2,0.2,0,0.4c-4.7,2.6-9.4,5.1-14,7.7C3,25.3,2.9,25.3,2.8,25.4z"/>
	<path id="Path_50" class="st0" d="M23.6,13.2c0,0.4-0.2,0.7-0.5,0.9c-0.2,0.2-0.5,0.3-0.7,0.4c-1.4,0.8-2.8,1.6-4.2,2.3
		c-0.1,0.1-0.3,0.1-0.4,0c0,0,0,0,0,0c-1-1-2-2.1-3-3.1c-0.1-0.1-0.2-0.2,0-0.4c1.2-1.2,2.4-2.3,3.5-3.5c0.1-0.1,0.3-0.2,0.4-0.1
		c0,0,0,0,0,0c1.4,0.8,2.8,1.6,4.2,2.4C23.3,12.3,23.6,12.7,23.6,13.2z"/>
</g>
</svg>
