<?xml version="1.0" encoding="utf-8"?>
<!-- Generator: Adobe Illustrator 24.3.0, SVG Export Plug-In . SVG Version: 6.00 Build 0)  -->
<svg version="1.1" id="圖層_1" xmlns="http://www.w3.org/2000/svg" xmlns:xlink="http://www.w3.org/1999/xlink" x="0px" y="0px"
	 viewBox="0 0 364.8 88.3" style="enable-background:new 0 0 364.8 88.3;" xml:space="preserve">
<style type="text/css">
	.st0{fill:#FF6D2D;}
</style>
<g id="圖層_3">
	<path d="M277.9,72.3h3.4l3.7,11l3.7-11h3.3L286.3,88h-2.7L277.9,72.3z"/>
	<path d="M351.9,72.3h11.7v3.1h-8.4v3.2h7.4v3h-7.4v3.3h8.5v3h-11.8V72.3z"/>
	<rect x="166.9" y="72.2" width="2.9" height="15.7"/>
	<path d="M228.3,72.2c-4.3,0-7.9,3.5-7.9,7.8c0,4.3,3.5,7.9,7.9,7.9c4.3,0,7.9-3.5,7.9-7.8c0,0,0,0,0,0
		C236.1,75.8,232.6,72.2,228.3,72.2z M228.3,85c-2.7,0-4.9-2.2-4.9-4.9s2.2-4.9,4.9-4.9c2.7,0,4.9,2.2,4.9,4.9c0,0,0,0,0,0
		C233.2,82.8,231,85,228.3,85L228.3,85z"/>
	<path d="M306.5,72.2c-4.3,0-7.9,3.5-7.9,7.8c0,4.3,3.5,7.9,7.9,7.9c4.3,0,7.9-3.5,7.9-7.8c0,0,0,0,0,0
		C314.4,75.8,310.9,72.2,306.5,72.2z M306.5,85c-2.7,0-4.9-2.2-4.9-4.9s2.2-4.9,4.9-4.9c2.7,0,4.9,2.2,4.9,4.9
		C311.4,82.8,309.2,85,306.5,85C306.5,85,306.5,85,306.5,85L306.5,85z"/>
	<path d="M323.8,83.1c0-0.1-0.1-0.1-0.2-0.1l0,0c-0.1,0-0.1,0-0.2,0.1l-1.4,2.6c0,0,0,0,0,0.1c0,0.2,0.3,2.1,0.3,2.1
		c0,0.1,0.1,0.1,0.1,0.1l0,0h2.3c0.1,0,0.1-0.1,0.1-0.1l0,0l0.4-2.1c0,0,0,0,0-0.1L323.8,83.1z"/>
	<polygon points="322.8,81.2 324.4,81.2 325.5,72.2 321.7,72.2 	"/>
	<polygon points="147.7,83.7 143.1,72.2 140.1,72.2 140.1,87.9 143.1,87.9 143.1,80 146.3,87.9 149.2,87.9 152.4,80 152.4,87.9 
		155.4,87.9 155.4,72.2 152.4,72.2 	"/>
	<path d="M187.9,72.2h-6.6v15.7h2.9v-6.4h3.5l1.8,6.4h2.9l-2-7.2c1.3-0.9,2-2.3,2-3.8l0,0C192.5,74.3,190.5,72.2,187.9,72.2z
		 M187.9,78.5h-3.6v-1.7l0,0v-1.7h3.6c0.9-0.1,1.7,0.6,1.8,1.6c0.1,0.9-0.6,1.7-1.6,1.8C188.1,78.6,188,78.6,187.9,78.5z"/>
	<path d="M213.1,76.9L213.1,76.9c0-2.6-2.1-4.6-4.6-4.6l0,0h-6.6v15.7h2.9v-6.4h3.3l2.2,6.4h2.9l-2.4-7.1
		C212.3,80,213.1,78.5,213.1,76.9z M208.5,78.6h-3.6v-1.7l0,0v-1.7h3.6c0.9,0.1,1.6,0.9,1.6,1.8C210,77.8,209.3,78.5,208.5,78.6z"/>
	<path d="M254.4,76.9L254.4,76.9c0-2.6-2.1-4.6-4.6-4.6l0,0h-6.6v15.7h2.9v-6.4h3.3l2.2,6.4h3l-2.4-7.1
		C253.6,80,254.4,78.5,254.4,76.9z M249.8,78.6h-3.6v-1.7l0,0v-1.7h3.6c0.9-0.1,1.7,0.6,1.8,1.6c0.1,0.9-0.6,1.7-1.6,1.8
		C250,78.6,249.9,78.6,249.8,78.6z"/>
	<path d="M342,82.7c-0.4,1.3-1.6,2.3-3,2.3h-0.1c-1.7,0-3.1-1.4-3.1-3.1v-3.6c0-1.7,1.4-3.1,3.1-3.1h0.1c1.4,0,2.6,0.9,3,2.3
		l2.9-0.5c-0.6-2.8-3.1-4.7-6-4.8l0,0c-3.4,0-6.1,2.7-6.1,6.1v3.5c0,3.4,2.7,6.1,6.1,6.1l0,0c2.9,0,5.4-2,6-4.8L342,82.7z"/>
	<path d="M320.4,46.1l3.9-0.3l0.1,4.6c-4.8,0.6-9.4,1.1-13.4,1.5l-0.5-5c1.4-0.1,3.1-0.2,4.9-0.3v-2.8h-3.3v-4.2h3.3V37h-4v-4.3H324
		V37h-3.5v2.4h3v4.2h-3L320.4,46.1z M331.7,48.7c1.9-2.8,3.2-6,3.8-9.4l4.9,1.7c-0.8,4-2.1,8.5-4.6,11.5l-4.1-3.1v5h-6.2V29.8
		c-5.1,0.5-10.1,0.8-14.1,1.1l-0.6-5.4l2.9-0.1V8.2h-2.7V2.8h23.2v5.5h-2.4L331.7,48.7z M319.8,8.2v2.7h5.7V8.2H319.8z M319.8,17.7
		h5.7v-2.7h-5.7V17.7z M325.5,24.7v-2.8h-5.7V25L325.5,24.7z M359.6,52.2c-0.4-1.8-1.1-3.6-1.9-5.3c-0.6,5.5-2.1,7-5.8,7H347
		c-5.1,0-6.2-1.6-6.2-6.5v-7.9h5c-1.3-0.7-2.6-1.4-3.9-2l1.7-1.8h-10v-5.8h30.6v5.8h-14.4c1.4,0.8,2.8,1.7,4.1,2.7l-3.7,4.3
		c-1.1-1-2.4-1.9-3.6-2.7v7.3c0,1.3,0.2,1.5,1.3,1.5h3.4c1,0,1.3-0.2,1.5-4.3c4.6,1.7,2.7,1,4.6,1.7c-1-1.9-2.1-3.6-3.5-5.3l4.8-2.1
		c2.8,3.2,4.9,7,6.1,11.1L359.6,52.2z M345.1,10.2h-10.6V4.8h10.6V0.6h6.7v4.2h11.6v5.4h-11.6V13h10.8v14.6h-27.4V13h10L345.1,10.2z
		 M343.2,17.9h-3.1v4.9h3.1V17.9z M350.2,17.9h-3.1v4.9h3.1V17.9z M354.1,22.7h3.2v-4.9h-3.2V22.7z"/>
	<path d="M249.6,12c-0.6,10.5-2.2,19.4-4.9,26c2.3,1.8,4.4,3.8,6.2,6l-4.1,5.5c-1.6-2-3.3-3.8-5.1-5.5c-2.6,4.3-6.3,7.9-10.5,10.6
		c-1.1-2-2.5-3.8-4.1-5.4c4-2.2,7.3-5.5,9.4-9.5c-1-0.9-2.1-1.6-3.1-2.4l-0.5,1.8l-5.6-3c1.3-4.7,2.7-11.2,4.1-17.9h-4.5V12h5.7
		c0.8-4,1.4-7.9,2-11.5l6.5,0.6c-0.6,3.4-1.3,7.1-2,10.9H249.6L249.6,12z M237.8,18.3c-0.9,4.4-1.9,8.7-2.8,12.7
		c1.4,0.9,2.8,1.9,4.3,2.9c1.8-5,2.9-10.3,3.5-15.6L237.8,18.3z"/>
	<path d="M267.9,20.1l9.8-11.9L267.9,20.1z"/>
	<path d="M280.6,31.2v-6.5h-12.7v-4.6l9.8-11.9l-4.3-4.9h-22.6v6.4h18l-6,6.7l-1.7-0.1v8.4h-12.2v6.5h12.2V42l0,0v5.5
		c0,0.1-0.1,0.2-0.2,0.2h-8.8l1.1,6.8h7.7c3.9,0,7-3.1,7-7V42l0,0V31.2H280.6z"/>
	<path d="M191.9,44.7V45c0,0.8-0.2,1.6-0.5,2.3c-0.4,0.8-1.3,1.3-2.2,1.2h-3.1c-0.7,0-1.3-0.6-1.3-1.3V41h8.1V20.7H165V41h6.3
		c-0.4,1.9-1.3,3.6-2.7,5c-2.1,1.8-4.6,3-7.3,3.6h-0.2l1.8,4.9h0.2c3.4-0.8,6.5-2.4,9.1-4.7c2.4-2.4,3.9-5.5,4.3-8.8h3v7.6
		c0,2.8,2.3,5,5.1,5h6.4l0,0c4.5,0,5.6-5.6,5.8-7.4v-0.2L191.9,44.7z M170.2,25.9h17.4v2.3h-17.4V25.9z M170.2,35.8v-2.3h17.4v2.3
		H170.2z"/>
	<path d="M193.7,13.1h-7l1.7-3.8h5.3V4.1h-12.4V0.7h-5.2v3.4h-12v5.2h5.4l1.7,3.8h-7.1v5.2h29.6V13.1z M181.5,13.1h-5.1l-1.8-3.8
		h8.7L181.5,13.1z"/>
	<path d="M154.9,41.7l4.8,0.9c0,0,1.1-4.8,2.2-10.3l-5.1-1.1L154.9,41.7z"/>
	<path d="M145.1,32.4l-4.9,1.8c0,0,2.3,6.3,3.6,11.6l4.6-1.6C148.4,44.2,146.7,37,145.1,32.4z"/>
	<path d="M154.1,29.9h6.9v-5.2h-6.9v-4.4h6.9V15h-0.7l2.7-3l-0.2-0.1c-3.3-2.1-6.3-4.7-8.8-7.7c0.1-0.3,0.3-0.9,0.3-0.9l0.5-1.6
		l-5.2-1v0.2c-2.3,10.2-11.7,16.6-11.8,16.7l-0.2,0.2l3.7,3.7l0.1-0.1c0,0,0.6-0.4,1.5-1.1h6.1v4.4h-7.2v5.2h7.2V47
		c-4.6,1.2-8.1,2.1-8.8,2.2l1.4,5c1-0.2,10.5-2.5,19.5-5.4v-5.5c-2.3,0.8-4.6,1.5-6.9,2.2L154.1,29.9z M148,15
		c1.4-1.7,2.7-3.6,3.7-5.5c2,2,4.2,3.9,6.6,5.5H148z"/>
	<path d="M19.9,45.9c0,0,1.3-18.3,14.4-30.6c0.9,0.5,2,0.5,2.9,0c2.4-1.5,4.8-2.9,7.4-4.1C49,9.2,61.3,8.1,68,9.8
		c3.9,1,7.7,2.6,11.2,4.7c0,0,1.9,1.6,3.6,0.6c0,0,11.7,7.4,14.6,30.7c0,0-2.8-0.8-5.3,2.3s-2.6,4.4-2.8,7s0,23,0,23
		c0,1.7,0.5,3.4,1.4,4.8c1.5,2.4,4,4.1,5.9,4.1h4.1V47c0,0,0.6-20.6-15.4-35c0.1-1.1-0.3-2.2-1-3c-1.1-1.2-5.3-4.7-14-7
		S46-0.6,34.2,8c0,0-2.8,2.4-2.2,4.4c0,0-10.7,7.8-15.1,28.6c-0.2,1.4-0.4,2.7-0.4,4.1v42.4c0,0,4.3,0.5,7.4-1.5
		c2.3-1.4,3.9-3.7,4.4-6.4V54.8C28.2,49.1,22.6,45.5,19.9,45.9z"/>
	<path class="st0" d="M13.3,45.7v41.9c0,0-13.3-1.9-13.3-19.9C0,52,8.2,45.7,13.3,45.7z"/>
	<path class="st0" d="M104.1,45.7v41.9c0,0,13.3-1.9,13.3-19.9C117.5,52,109.3,45.7,104.1,45.7z"/>
</g>
</svg>
